<svg width="20" height="20" viewBox="0 0 20 20" fill="none" xmlns="http://www.w3.org/2000/svg">
<path d="M15 10.9833V8.33329C14.9988 7.15256 14.5798 6.01035 13.8172 5.10894C13.0545 4.20753 11.9975 3.60508 10.8333 3.40829V2.49996C10.8333 2.27895 10.7455 2.06698 10.5892 1.9107C10.433 1.75442 10.221 1.66663 9.99998 1.66663C9.77897 1.66663 9.567 1.75442 9.41072 1.9107C9.25444 2.06698 9.16665 2.27895 9.16665 2.49996V3.40829C8.00243 3.60508 6.94542 4.20753 6.1828 5.10894C5.42018 6.01035 5.00118 7.15256 4.99998 8.33329V10.9833C4.51369 11.1552 4.09248 11.4734 3.7941 11.8941C3.49571 12.3148 3.33476 12.8175 3.33331 13.3333V15C3.33331 15.221 3.42111 15.4329 3.57739 15.5892C3.73367 15.7455 3.94563 15.8333 4.16665 15.8333H6.78331C6.97522 16.5394 7.39415 17.1628 7.97548 17.6072C8.55681 18.0517 9.26823 18.2925 9.99998 18.2925C10.7317 18.2925 11.4432 18.0517 12.0245 17.6072C12.6058 17.1628 13.0247 16.5394 13.2166 15.8333H15.8333C16.0543 15.8333 16.2663 15.7455 16.4226 15.5892C16.5788 15.4329 16.6666 15.221 16.6666 15V13.3333C16.6652 12.8175 16.5042 12.3148 16.2059 11.8941C15.9075 11.4734 15.4863 11.1552 15 10.9833V10.9833ZM6.66665 8.33329C6.66665 7.44924 7.01784 6.60139 7.64296 5.97627C8.26808 5.35115 9.11592 4.99996 9.99998 4.99996C10.884 4.99996 11.7319 5.35115 12.357 5.97627C12.9821 6.60139 13.3333 7.44924 13.3333 8.33329V10.8333H6.66665V8.33329ZM9.99998 16.6666C9.70912 16.6649 9.42379 16.587 9.17234 16.4408C8.92089 16.2946 8.71207 16.0852 8.56665 15.8333H11.4333C11.2879 16.0852 11.0791 16.2946 10.8276 16.4408C10.5762 16.587 10.2908 16.6649 9.99998 16.6666ZM15 14.1666H4.99998V13.3333C4.99998 13.1123 5.08778 12.9003 5.24406 12.744C5.40034 12.5878 5.6123 12.5 5.83331 12.5H14.1666C14.3877 12.5 14.5996 12.5878 14.7559 12.744C14.9122 12.9003 15 13.1123 15 13.3333V14.1666Z" fill="#71839B"/>
</svg>
